<?xml version="1.0" encoding="utf-8"?><svg viewBox="0 0 100 100" xmlns="http://www.w3.org/2000/svg" xmlns:xlink="http://www.w3.org/1999/xlink"><style>:root>svg{display:none}:root>svg:target{display:block}</style><svg viewBox="0 0 22 12" id="choice" xmlns="http://www.w3.org/2000/svg"><path d="M1 1l10 10L21 1"/></svg><svg viewBox="0 0 12 12" id="choiceIn" xmlns="http://www.w3.org/2000/svg"><circle cx="6" cy="6" r="6"/></svg><svg viewBox="0 0 100 100" id="icon" xmlns="http://www.w3.org/2000/svg"><path d="M48.418 63.575a4.746 4.746 0 01-2.01-.455 4.654 4.654 0 01-2.325-2.33 4.742 4.742 0 01-.221-3.305l3.31-11.101h-7.8a6.296 6.296 0 01-2.864-.686 6.385 6.385 0 01-2.252-1.916 6.491 6.491 0 01-1.162-2.738 6.525 6.525 0 01.179-2.975l6.414-21.49a6.41 6.41 0 012.297-3.32A6.273 6.273 0 0145.788 12h7.833c.89 0 1.768.22 2.556.639a5.538 5.538 0 011.973 1.766 5.655 5.655 0 01.632 5.14l-3.57 9.647h5.424c1.156 0 2.29.319 3.281.923.99.604 1.8 1.47 2.342 2.504a6.516 6.516 0 01-.356 6.639L52.327 61.392a4.692 4.692 0 01-1.68 1.596 4.62 4.62 0 01-2.229.587zm-2.63-47.277c-.456 0-.9.148-1.265.423a2.149 2.149 0 00-.767 1.103l-6.415 21.49a2.176 2.176 0 00.327 1.903 2.108 2.108 0 001.703.869h10.66a2.1 2.1 0 011.703.868 2.164 2.164 0 01.326 1.904l-4.13 13.844a.397.397 0 00.257.517.395.395 0 00.57-.157l13.576-22.134a2.166 2.166 0 00.165-2.284 2.093 2.093 0 00-.77-.845 2.056 2.056 0 00-1.092-.31h-8.485a2.1 2.1 0 01-.984-.244 2.13 2.13 0 01-.76-.68 2.166 2.166 0 01-.243-1.978l4.645-12.55a1.305 1.305 0 00-.146-1.183 1.278 1.278 0 00-1.042-.556h-7.833zm-.411 67.105l-8.257-3.19V77.92l8.258-3.19v2.203l-7.442 2.75V78.45l7.441 2.75v2.204zm.48 3.597l5.724-16.608h2.412L48.268 87h-2.411zm8.441-3.597V81.2l7.442-2.75v1.233l-7.442-2.75v-2.204l8.257 3.191v2.292l-8.257 3.191z"/></svg></svg>